HIERARCHY
ROOT Hips
{
  OFFSET 0.000000 0.000000 0.000000
  CHANNELS 6 Xposition Yposition Zposition Xrotation Yrotation Zrotation
  JOINT Spine
  {
    OFFSET 0.211591 24.227834 -3.764787
    CHANNELS 3 Xrotation Yrotation Zrotation
    JOINT Chest
    {
      OFFSET 0.211591 24.227834 -3.764787
      CHANNELS 3 Xrotation Yrotation Zrotation
      JOINT Neck
      {
        OFFSET -1.100772 8.441563 -3.430650
        CHANNELS 3 Xrotation Yrotation Zrotation
        JOINT Head
        {
          OFFSET -1.192129 7.757112 -7.601908
          CHANNELS 3 Xrotation Yrotation Zrotation
          End Site
          {
            OFFSET -0.357639 2.327134 -2.280572
          }
        }
      }
      JOINT LeftShoulder
      {
        OFFSET 17.192089 0.613400 -1.554494
        CHANNELS 3 Xrotation Yrotation Zrotation
        JOINT LeftArm
        {
          OFFSET 6.822346 -20.001605 -11.416031
          CHANNELS 3 Xrotation Yrotation Zrotation
          JOINT LeftForeArm
          {
            OFFSET -10.811707 -3.287858 -20.004664
            CHANNELS 3 Xrotation Yrotation Zrotation
            JOINT LeftHand
            {
              OFFSET -2.972239 -0.032078 -2.791873
              CHANNELS 3 Xrotation Yrotation Zrotation
              End Site
              {
                OFFSET -0.891672 -0.009623 -0.837562
              }
            }
          }
        }
      }
      JOINT RightShoulder
      {
        OFFSET -17.192089 -0.613400 1.554494
        CHANNELS 3 Xrotation Yrotation Zrotation
        JOINT RightArm
        {
          OFFSET -7.078612 -20.128798 -9.457155
          CHANNELS 3 Xrotation Yrotation Zrotation
          JOINT RightForeArm
          {
            OFFSET 6.068787 -1.370308 -22.325569
            CHANNELS 3 Xrotation Yrotation Zrotation
            JOINT RightHand
            {
              OFFSET 2.627653 0.279547 -3.282648
              CHANNELS 3 Xrotation Yrotation Zrotation
              End Site
              {
                OFFSET 0.788296 0.083864 -0.984794
              }
            }
          }
        }
      }
    }
  }
  JOINT LeftUpLeg
  {
    OFFSET 11.367086 0.027478 -2.758015
    CHANNELS 3 Xrotation Yrotation Zrotation
    JOINT LeftLeg
    {
      OFFSET 2.451199 -39.057141 -4.768226
      CHANNELS 3 Xrotation Yrotation Zrotation
      JOINT LeftFoot
      {
        OFFSET 10.058204 -39.973237 0.774249
        CHANNELS 3 Xrotation Yrotation Zrotation
        End Site
        {
          OFFSET 3.017461 -11.991971 0.232275
        }
      }
    }
  }
  JOINT RightUpLeg
  {
    OFFSET -11.367086 -0.027478 2.758015
    CHANNELS 3 Xrotation Yrotation Zrotation
    JOINT RightLeg
    {
      OFFSET -4.668361 -37.080477 -5.635053
      CHANNELS 3 Xrotation Yrotation Zrotation
      JOINT RightFoot
      {
        OFFSET -2.542494 -41.040053 5.594103
        CHANNELS 3 Xrotation Yrotation Zrotation
        End Site
        {
          OFFSET -0.762748 -12.312016 1.678231
        }
      }
    }
  }
}
MOTION
Frames: 17
Frame Time: 0.083333
0.449750 60.631218 -0.612862 -0.697435 0.072172 0.388394 0.000000 0.000000 0.000000 0.352165 -0.273145 -0.732244 0.049268 -0.202876 0.003330 5.000000 0.000000 0.000000 2.134006 0.520733 0.727072 5.895955 -1.000450 -1.154307 0.000000 0.000000 0.000000 0.000000 0.000000 0.000000 1.197083 -0.093537 0.279394 2.056792 -0.027777 0.136927 0.000000 0.000000 0.000000 0.000000 0.000000 0.000000 0.103718 -0.126579 -0.595338 -1.317609 -0.499005 0.379567 0.000000 0.000000 0.000000 -2.391730 0.364468 -0.409917 1.745768 -0.454428 -0.866827 0.000000 0.000000 0.000000
0.900782 61.171599 -1.153416 -0.696426 0.072060 0.387906 0.000000 0.000000 0.000000 0.344338 -0.283232 -0.751852 0.050550 -0.217908 0.000930 5.000000 0.000000 0.000000 2.059838 0.528660 0.806551 5.083872 -0.949739 -1.101096 0.000000 0.000000 0.000000 0.000000 0.000000 0.000000 1.389209 -0.090687 0.215232 1.584119 0.060153 0.242049 0.000000 0.000000 0.000000 0.000000 0.000000 0.000000 -0.013625 -0.128646 -0.275649 -1.357933 -0.425624 0.199873 0.000000 0.000000 0.000000 -2.144393 0.324586 -0.466232 1.464930 -0.380959 -0.566587 0.000000 0.000000 0.000000
1.803448 61.863223 -1.882396 -0.696430 0.072041 0.387790 0.000000 0.000000 0.000000 0.344338 -0.283513 -0.752443 0.050626 -0.218365 0.000870 5.000000 0.000000 0.000000 5.600364 1.547209 2.648483 12.206637 -2.508389 -3.018619 0.000000 0.000000 0.000000 0.000000 0.000000 0.000000 4.491161 -0.062978 0.349915 3.039039 0.253497 1.157304 61.274006 -38.618738 30.376591 0.000000 0.000000 0.000000 -0.278139 -0.376387 0.278102 -3.916907 -0.910447 0.506131 0.000000 0.000000 0.000000 -5.450931 0.827723 -1.526938 3.333216 -0.886683 -0.700829 0.000000 0.000000 0.000000
2.765996 61.446303 -1.652618 -1.294159 0.154744 0.856547 0.000000 0.000000 0.000000 0.441234 -0.837260 -2.130642 0.095965 -0.871687 -0.089092 5.000000 0.000000 0.000000 7.520164 2.413062 4.842435 13.058341 -3.253416 -4.209780 0.000000 0.000000 0.000000 0.000000 0.000000 0.000000 7.799330 0.737223 -0.415005 0.974631 0.119458 3.220983 0.000000 0.000000 0.000000 0.000000 0.000000 0.000000 -0.192360 -0.584275 3.112831 -6.255782 -0.436147 1.121830 0.000000 0.000000 0.000000 -6.620520 1.064685 -3.062083 2.938823 -0.922055 1.349609 0.000000 0.000000 0.000000
3.757325 59.777400 -0.294435 -0.529289 0.100739 0.602086 0.000000 0.000000 0.000000 -0.446714 -1.404389 -3.241291 0.109460 -1.954868 -0.322623 5.000000 0.000000 0.000000 7.638702 3.154434 5.974768 14.776592 -3.725908 -4.376316 0.000000 0.000000 0.000000 0.000000 0.000000 0.000000 9.248066 2.213235 -1.571491 -0.759368 -1.246345 5.459151 68.091072 -18.800691 54.065979 0.000000 0.000000 0.000000 3.833542 -0.707734 5.718250 -9.975402 0.732817 2.471226 0.000000 0.000000 0.000000 -7.541638 1.407908 -5.308419 1.940085 -1.313406 3.381594 0.000000 0.000000 0.000000
4.529111 57.993907 1.245803 -0.719232 0.011652 0.039165 0.000000 0.000000 0.000000 -0.197812 -1.830454 -3.874633 0.384504 -2.617029 -0.360807 5.000000 0.000000 0.000000 6.415831 4.490190 4.544712 19.692723 -4.854881 -2.316342 0.000000 0.000000 0.000000 0.000000 0.000000 0.000000 10.155106 1.574172 -0.329785 -1.161749 -1.085026 4.867352 0.000000 0.000000 0.000000 0.000000 0.000000 0.000000 13.052012 -0.768694 7.817416 -18.914163 2.038057 -0.742670 0.000000 0.000000 0.000000 -8.935377 1.774094 -8.523570 -0.574271 -2.329208 4.893468 0.000000 0.000000 0.000000
4.756200 57.325227 1.837229 -1.190066 -0.068065 -0.466524 0.000000 0.000000 0.000000 1.091688 -1.830848 -4.066519 0.712882 -2.780282 -0.390685 5.000000 0.000000 0.000000 2.389371 6.105537 0.879858 27.927822 -4.786320 2.228060 0.000000 0.000000 0.000000 0.000000 0.000000 0.000000 8.697918 -1.226184 6.385181 1.070604 0.855483 -1.255288 0.000000 0.000000 0.000000 0.000000 0.000000 0.000000 21.581746 -0.577417 8.605911 -25.792235 3.208650 -1.402728 0.000000 0.000000 0.000000 -10.989967 1.964031 -9.557253 -4.809741 -3.775974 3.809410 0.000000 0.000000 0.000000
4.523697 57.896346 1.347849 -1.463879 -0.154012 -1.014424 0.000000 0.000000 0.000000 1.721367 -1.950214 -4.249412 1.110506 -3.114891 -0.558543 5.000000 0.000000 0.000000 0.743555 6.244481 -0.451688 29.307486 -4.263930 3.734587 0.000000 0.000000 0.000000 0.000000 0.000000 0.000000 9.085856 -3.509482 10.486510 3.780970 2.354070 -5.445732 0.000000 0.000000 0.000000 0.000000 0.000000 0.000000 18.521162 -0.136195 9.459361 -24.685024 2.790001 -0.998491 0.000000 0.000000 0.000000 -9.881854 2.136973 -10.538515 -7.928285 -4.272537 7.434139 0.000000 0.000000 0.000000
4.163462 58.697038 0.676783 -0.270787 -0.320767 -2.114474 0.000000 0.000000 0.000000 0.442402 -1.881798 -3.221966 1.081813 -3.271741 -0.640748 5.000000 0.000000 0.000000 1.995653 5.091463 0.842444 26.072152 -3.738443 1.685519 0.000000 0.000000 0.000000 0.000000 0.000000 0.000000 8.523050 -1.194063 5.752836 1.149287 0.839333 -1.086117 0.000000 0.000000 0.000000 0.000000 0.000000 0.000000 10.504502 0.236311 11.752480 -20.480650 2.167893 -0.446916 0.000000 0.000000 0.000000 -5.816455 2.443334 -11.101630 -10.907607 -4.914420 11.663706 0.000000 0.000000 0.000000
3.905390 58.853026 0.521197 1.189883 -0.588136 -4.016939 0.000000 0.000000 0.000000 -1.316375 -1.501821 -0.589747 0.506741 -2.891733 -0.320532 5.000000 0.000000 0.000000 6.018878 4.134989 3.515971 21.962342 -3.664368 -2.119498 0.000000 0.000000 0.000000 0.000000 0.000000 0.000000 6.830047 0.592242 2.157506 -0.024279 -0.326096 1.707819 0.000000 0.000000 0.000000 0.000000 0.000000 0.000000 4.783205 -0.076436 12.079558 -17.207372 1.831349 1.267974 0.000000 0.000000 0.000000 -5.401656 2.579253 -11.879879 -8.032364 -5.047961 11.573820 0.000000 0.000000 0.000000
3.556212 58.086275 1.018550 3.099376 -0.568994 -4.214054 0.000000 0.000000 0.000000 -3.503587 -1.371565 0.488692 -0.093467 -2.446848 -0.081206 5.000000 0.000000 0.000000 7.987873 3.138692 4.268205 8.983292 -3.814605 -3.092874 0.000000 0.000000 0.000000 0.000000 0.000000 0.000000 5.007743 1.327819 0.020368 -3.112698 -0.875657 2.634731 0.000000 0.000000 0.000000 0.000000 0.000000 0.000000 1.644569 -0.506822 11.127225 -16.818020 1.717236 1.972219 0.000000 0.000000 0.000000 -7.633945 2.490214 -13.773728 -7.749916 -5.586082 10.298647 0.000000 0.000000 0.000000
2.737673 57.174347 1.544072 4.272419 -0.392488 -2.955349 0.000000 0.000000 0.000000 -4.806613 -1.099223 0.309534 -0.524692 -1.837041 0.030307 5.000000 0.000000 0.000000 6.162124 1.264840 2.407968 -1.761905 -2.823828 -2.158144 0.000000 0.000000 0.000000 0.000000 0.000000 0.000000 -0.338898 0.833855 0.520981 -2.846994 -0.828957 -0.123136 0.000000 0.000000 0.000000 0.000000 0.000000 0.000000 -1.007910 -0.957297 8.745383 -15.640915 1.717395 2.493056 0.000000 0.000000 0.000000 -9.485823 2.641254 -18.170054 -7.930324 -5.784471 12.686822 0.000000 0.000000 0.000000
1.351525 56.843928 1.568167 5.034795 -0.070208 -0.085947 0.000000 0.000000 0.000000 -5.272033 -0.182085 -0.460943 -0.639404 -0.142327 0.355541 5.000000 0.000000 0.000000 1.254525 -0.493014 -1.167700 -1.694398 -0.653967 -0.234367 -66.970779 -35.708200 63.587226 0.000000 0.000000 0.000000 -8.207541 0.774407 2.846840 6.926714 -0.952914 -4.419714 45.391636 0.426702 32.734221 0.000000 0.000000 0.000000 -3.502717 -1.340449 6.998333 -11.473210 2.025627 3.477841 0.000000 0.000000 0.000000 -8.541377 2.875267 -22.369469 -7.489822 -5.233222 17.679138 0.000000 0.000000 0.000000
-0.174700 57.599496 0.711340 5.930808 0.254004 2.838445 0.000000 0.000000 0.000000 -6.030655 0.632286 -1.302600 -0.329281 1.352777 0.496842 5.000000 0.000000 0.000000 -1.301766 -0.535325 -3.180487 -0.278963 0.355634 1.324823 0.000000 0.000000 0.000000 0.000000 0.000000 0.000000 -8.037259 0.272663 3.404573 6.169132 -0.468840 -5.478709 0.000000 0.000000 0.000000 0.000000 0.000000 0.000000 -2.809759 -1.893424 7.629923 -5.571634 2.582487 2.955725 0.000000 0.000000 0.000000 -5.357605 2.805915 -22.631629 -5.805502 -3.806644 21.159100 0.000000 0.000000 0.000000
-1.447541 59.147569 -0.668430 4.619912 0.511112 4.792510 0.000000 0.000000 0.000000 -4.763354 0.653749 -2.893125 -0.121829 1.462769 0.387430 5.000000 0.000000 0.000000 2.557288 -0.485551 -0.880322 -0.321394 1.175353 -1.054483 0.000000 0.000000 0.000000 0.000000 0.000000 0.000000 -3.393267 -0.395425 1.713914 5.901534 1.220342 -3.307499 50.704011 -50.531509 1.537918 0.000000 0.000000 0.000000 -2.012961 -2.190273 6.999362 -0.364147 2.411429 2.311058 0.000000 0.000000 0.000000 -11.235236 2.954516 -17.596596 0.900550 -1.273417 19.216226 0.000000 0.000000 0.000000
-2.448492 60.868337 -2.040979 4.003601 0.676587 5.862180 0.000000 0.000000 0.000000 -4.845684 0.393715 -4.311869 -0.528794 1.041029 0.167256 5.000000 0.000000 0.000000 7.291434 -1.265900 2.344295 0.568225 1.683971 -4.565588 0.000000 0.000000 0.000000 0.000000 0.000000 0.000000 2.088824 -1.539561 0.721975 8.901197 2.727440 -1.881781 0.000000 0.000000 0.000000 0.000000 0.000000 0.000000 -0.474770 -1.917613 0.890150 3.016919 1.774028 3.420746 0.000000 0.000000 0.000000 -18.185393 3.349939 -10.329017 11.876020 -0.218328 8.513507 0.000000 0.000000 0.000000
-3.426135 61.681653 -2.600959 2.697492 0.909035 7.085867 0.000000 0.000000 0.000000 -4.917985 0.159010 -5.581839 -1.047875 0.819477 -0.038617 5.000000 0.000000 0.000000 9.121510 -1.876468 2.830723 0.982142 2.400856 -5.889753 0.000000 0.000000 0.000000 0.000000 0.000000 0.000000 1.430577 -1.768406 0.927704 11.480936 2.894012 -2.653231 0.000000 0.000000 0.000000 0.000000 0.000000 0.000000 -1.140337 -0.893376 -6.651405 4.846305 1.231192 6.016080 0.000000 0.000000 0.000000 -16.832757 3.086553 -9.069835 13.379717 -0.577403 7.160282 0.000000 0.000000 0.000000
